<?xml version="1.0" encoding="UTF-8"?>
<svg xmlns="http://www.w3.org/2000/svg" onmouseup="{ if(window.parent.document.onmouseup) window.parent.document.onmouseup(arguments[0]);}" overflow="visible" preserveAspectRatio="xMinYMid meet" viewBox="0 0 24 24" height="24" width="24"><linearGradient y2="24.001" x2="8" y1="7.987" x1="8" gradientUnits="userSpaceOnUse" id="a"><stop stop-color="#F0A829" offset="0"/><stop stop-color="#C7671A" offset="1"/></linearGradient><path data-cppathid="10000" fill="url(#a)" d="M3 19.2l-3 1.6V24h16v-.4c0-.5-.5-1.2-1-1.5L9 19c-.5-.3-.6-.8-.3-1.2 0 0 1.6-2 1.6-4.2C10.4 10.5 8.4 8 6 8s-4.4 2.6-4.4 5.7c0 2.1 1.6 4.2 1.6 4.2.4.4.3 1-.2 1.3z"/><linearGradient y2="23.001" x2="7.721" y1="8.987" x1="7.721" gradientUnits="userSpaceOnUse" id="b"><stop stop-color="#FFEBA8" offset="0"/><stop stop-color="#F8BE27" offset="1"/></linearGradient><path data-cppathid="10001" fill="url(#b)" d="M1 23v-1.7L3.5 20c.5-.3.8-.7 1-1.2.1-.5 0-1.1-.4-1.5 0 0-1.4-1.8-1.4-3.6C2.6 11.1 4.2 9 6 9s3.4 2.1 3.4 4.7c0 1.7-1.4 3.5-1.4 3.6-.3.4-.5 1-.4 1.5.1.5.5 1 1 1.2l5.9 3H1z"/><linearGradient y2="22.001" x2="6.134" y1="9.987" x1="6.134" gradientUnits="userSpaceOnUse" id="c"><stop stop-color="#FFC30F" offset="0"/><stop stop-color="#F5AE0D" offset="1"/></linearGradient><path data-cppathid="10002" fill="url(#c)" d="M2 22l1.9-1.1c.8-.4 1.3-1.1 1.5-1.9.2-.8 0-1.7-.6-2.3-.3-.4-1.2-1.8-1.2-3 0-2 1.1-3.7 2.4-3.7s2.4 1.7 2.4 3.7c0 1.1-.9 2.5-1.2 3-.5.7-.7 1.5-.5 2.3.2.8.7 1.5 1.5 1.9l2.2 1.1H2z"/><linearGradient y2="24.001" x2="16" y1="7.987" x1="16" gradientUnits="userSpaceOnUse" id="d"><stop stop-color="#8D470D" offset="0"/><stop stop-color="#7C3D09" offset="1"/></linearGradient><path data-cppathid="10003" fill="url(#d)" d="M24 24v-3.4l-3-1.5c-.5-.3-.6-.8-.3-1.2 0 0 1.6-2 1.6-4.2 0-3.2-1.9-5.7-4.4-5.7-2.4 0-4.4 2.6-4.4 5.7 0 2.1 1.6 4.2 1.6 4.2.3.4.2 1-.3 1.3l-6 3.2c-.5.3-1 .9-1 1.5v.1H24z"/><linearGradient y2="23.001" x2="16.412" y1="8.987" x1="16.412" gradientUnits="userSpaceOnUse" id="e"><stop stop-color="#D58738" offset="0"/><stop stop-color="#AB551F" offset="1"/></linearGradient><path data-cppathid="10004" fill="url(#e)" d="M9.8 23l5.7-3c.5-.3.8-.7 1-1.2.1-.5 0-1.1-.4-1.5 0 0-1.4-1.8-1.4-3.6 0-2.6 1.5-4.7 3.4-4.7s3.4 2.1 3.4 4.7c0 1.8-1.4 3.6-1.4 3.6-.3.4-.5 1-.4 1.5s.5 1 1 1.2l2.4 1.2V23H9.8z"/><linearGradient y2="22.001" x2="17.942" y1="9.987" x1="17.942" gradientUnits="userSpaceOnUse" id="f"><stop stop-color="#D0813A" offset="0"/><stop stop-color="#AF551D" offset="1"/></linearGradient><path data-cppathid="10005" fill="url(#f)" d="M13.9 22l2.1-1.1c.8-.4 1.3-1.1 1.5-1.9.2-.8 0-1.7-.6-2.3-.3-.4-1.2-1.8-1.2-3 0-2 1.1-3.7 2.4-3.7s2.4 1.7 2.4 3.7c0 1.2-.9 2.5-1.2 3-.5.7-.7 1.5-.6 2.3.2.8.7 1.5 1.5 1.9l1.9 1v.1h-8.2z"/><linearGradient y2="12.904" x2="7.451" x1="7.451" gradientUnits="userSpaceOnUse" id="g"><stop stop-color="#76A1F0" offset="0"/><stop stop-color="#6B90D5" offset="1"/></linearGradient><path data-cppathid="10006" fill="url(#g)" d="M12.5 10.4c1.4-1.1 2.4-2.6 2.4-4.3.1-3.3-3.2-6-7.3-6.1C3.4-.1.1 2.5 0 5.8c-.1 3.3 3.2 6 7.3 6.1 1 0 2-.1 2.9-.4.8 1 2.8 1.4 2.8 1.4s-.8-1.2-.5-2.5z"/><linearGradient y2="11.217" x2="7.451" y1="1" x1="7.451" gradientUnits="userSpaceOnUse" id="h"><stop stop-color="#BBE0F7" offset="0"/><stop stop-color="#82B4FB" offset="1"/></linearGradient><path data-cppathid="10007" fill="url(#h)" d="M11.4 11.2c-.2-.1-.3-.2-.4-.3l-.4-.6-.7.2c-.8.2-1.6.4-2.4.4h-.1C3.8 10.8 1 8.6 1 5.8 1 3.2 3.9 1 7.4 1h.2c1.8 0 3.4.6 4.6 1.6 1.1 1 1.8 2.2 1.7 3.5 0 1.3-.7 2.6-2 3.5l-.3.2-.1.4c-.1.3-.1.7-.1 1z"/><linearGradient y2="9.91" x2="7.451" y1="2" x1="7.451" gradientUnits="userSpaceOnUse" id="i"><stop stop-color="#95BFF8" offset="0"/><stop stop-color="#84ADEF" offset=".557"/><stop stop-color="#7CA4EB" offset="1"/></linearGradient><path data-cppathid="10008" fill="url(#i)" d="M7.4 9.9C4.4 9.9 2 8 2 5.9S4.5 2 7.4 2h.1c1.5 0 2.9.5 4 1.4.9.8 1.4 1.7 1.4 2.7 0 1-.6 2-1.6 2.7l-.6.4v.1l-1.1.3c-.6.2-1.4.3-2.1.3h-.1z"/><path data-cppathid="10009" fill="#FFF" d="M5.5 4.5h1.9V6c0 .5-.1 1-.3 1.3-.2.3-.6.6-1.2.8l-.4-.8c.4-.1.6-.3.7-.4.1-.2.2-.3.2-.6h-.9V4.5zm2.2 0h1.9V6c0 .5-.1 1-.3 1.3-.2.3-.6.6-1.1.8l-.5-.8c.4-.1.6-.3.7-.4.1-.2.2-.3.2-.6h-.9V4.5z"/></svg>