<?xml version="1.0" encoding="UTF-8"?>
<svg xmlns="http://www.w3.org/2000/svg" onmouseup="{ if(window.parent.document.onmouseup) window.parent.document.onmouseup(arguments[0]);}" overflow="visible" preserveAspectRatio="xMinYMid meet" viewBox="0 -2 24 24" height="24" width="24"><linearGradient y2="20" x2="11.999" x1="11.999" gradientUnits="userSpaceOnUse" id="a"><stop stop-color="#F0A829" offset="0"/><stop stop-color="#C7671A" offset="1"/></linearGradient><path data-cppathid="10000" d="M1 0h22v20H1z" fill="url(#a)"/><linearGradient y2="19" x2="11.999" y1="1" x1="11.999" gradientUnits="userSpaceOnUse" id="b"><stop stop-color="#FFEBA8" offset="0"/><stop stop-color="#F8BE27" offset="1"/></linearGradient><path data-cppathid="10001" d="M2 1h20v18H2z" fill="url(#b)"/><linearGradient y2="18" x2="11.999" y1="2" x1="11.999" gradientUnits="userSpaceOnUse" id="c"><stop stop-color="#FFC30F" offset="0"/><stop stop-color="#F5AE0D" offset="1"/></linearGradient><path data-cppathid="10002" d="M3 2h18v16H3z" fill="url(#c)"/><linearGradient y2="7" x2="11.999" x1="11.999" gradientUnits="userSpaceOnUse" id="d"><stop stop-color="#F0A829" offset="0"/><stop stop-color="#C7671A" offset="1"/></linearGradient><path data-cppathid="10003" d="M0 0h24v7H0z" fill="url(#d)"/><linearGradient y2="6" x2="11.999" y1="1" x1="11.999" gradientUnits="userSpaceOnUse" id="e"><stop stop-color="#FFEBA8" offset="0"/><stop stop-color="#F8BE27" offset="1"/></linearGradient><path data-cppathid="10004" d="M1 1h22v5H1z" fill="url(#e)"/><linearGradient y2="5" x2="11.999" y1="2" x1="11.999" gradientUnits="userSpaceOnUse" id="f"><stop stop-color="#FFC30F" offset="0"/><stop stop-color="#F5AE0D" offset="1"/></linearGradient><path data-cppathid="10005" d="M2 2h20v3H2z" fill="url(#f)"/><linearGradient y2="13.001" x2="11.499" x1="11.499" gradientUnits="userSpaceOnUse" id="g"><stop stop-color="#8D470D" offset="0"/><stop stop-color="#7C3D09" offset="1"/></linearGradient><path data-cppathid="10006" d="M9 0v13l2.5-2 2.5 2V0" fill="url(#g)"/><linearGradient y2="10.935" x2="11.499" y1="1" x1="11.499" gradientUnits="userSpaceOnUse" id="h"><stop stop-color="#D58738" offset="0"/><stop stop-color="#AB551F" offset="1"/></linearGradient><path data-cppathid="10007" d="M10 1v9.9l1.5-1.2 1.5 1.2V1" fill="url(#h)"/><linearGradient y2="8.871" x2="11.5" y1="2" x1="11.5" gradientUnits="userSpaceOnUse" id="i"><stop stop-color="#D0813A" offset="0"/><stop stop-color="#AF551D" offset="1"/></linearGradient><path data-cppathid="10008" d="M11 2v6.8l.5-.4.5.5V2" fill="url(#i)"/></svg>