<?xml version="1.0" encoding="UTF-8"?>
<svg xmlns="http://www.w3.org/2000/svg" onmouseup="{ if(window.parent.document.onmouseup) window.parent.document.onmouseup(arguments[0]);}" overflow="visible" preserveAspectRatio="xMinYMid meet" viewBox="-0.1 -0.1 24 24" height="24" width="24"><linearGradient y2="19.788" x2="10.943" x1="10.943" gradientUnits="userSpaceOnUse" id="a"><stop stop-color="#76A1F0" offset="0"/><stop stop-color="#6B90D5" offset="1"/></linearGradient><path data-cppathid="10000" fill="url(#a)" d="M10.8 0C4.7.1-.1 4.3 0 9.3c0 2.6 1.5 5 3.7 6.6 0 .1 0 .2.1.3.3 2-.9 3.6-.9 3.6s2.2-.5 3.5-1.5c.2-.2.5-.4.7-.7 1.3.4 2.6.6 4.1.6 6-.1 10.9-4.3 10.8-9.3-.2-5-5.2-9-11.2-8.9z"/><linearGradient y2="18.129" x2="10.943" y1="1" x1="10.943" gradientUnits="userSpaceOnUse" id="b"><stop stop-color="#BBE0F7" offset="0"/><stop stop-color="#82B4FB" offset="1"/></linearGradient><path data-cppathid="10001" fill="url(#b)" d="M4.6 18.1c.1-.6.2-1.3.1-2.1 0-.1 0-.2-.1-.3l-.1-.4-.3-.3C2.2 13.6 1 11.5 1 9.3.9 4.8 5.3 1.1 10.8 1h.2c5.4 0 9.8 3.5 9.9 7.9.1 4.5-4.3 8.2-9.8 8.3h-.2c-1.2 0-2.4-.2-3.5-.5l-.6-.2-.4.5c-.2.2-.4.4-.5.6-.5.1-.9.3-1.3.5z"/><linearGradient y2="16.163" x2="10.943" y1="2" x1="10.943" gradientUnits="userSpaceOnUse" id="c"><stop stop-color="#95BFF8" offset="0"/><stop stop-color="#84ADEF" offset=".557"/><stop stop-color="#7CA4EB" offset="1"/></linearGradient><path data-cppathid="10002" fill="url(#c)" d="M10.8 16.2c-1.1 0-2.2-.2-3.2-.5l-1.3-.4-.6.7v-.1c0-.1 0-.3-.1-.4l-.1-.7-.6-.6C3 13 2 11.2 2 9.3c-.1-4 3.9-7.2 8.8-7.3h.2c4.8 0 8.8 3.1 8.8 6.9.1 3.9-3.9 7.2-8.8 7.2l-.2.1z"/><path data-cppathid="10003" fill="#FFF" d="M16.6 9.6c0 .7-.6 1.3-1.2 1.3-.7 0-1.3-.6-1.3-1.3 0-.7.6-1.2 1.3-1.2.6 0 1.2.5 1.2 1.2zm-5.1-1.2c-.7 0-1.2.6-1.2 1.2 0 .7.6 1.3 1.2 1.3.7 0 1.3-.6 1.3-1.3-.1-.7-.6-1.2-1.3-1.2zm-4 0c-.7 0-1.3.6-1.3 1.2 0 .7.6 1.3 1.3 1.3s1.3-.6 1.3-1.3c0-.7-.6-1.2-1.3-1.2z"/><linearGradient y2="23.84" x2="14.025" y1="6.667" x1="14.025" gradientUnits="userSpaceOnUse" id="d"><stop stop-color="#F0A829" offset="0"/><stop stop-color="#C7671A" offset="1"/></linearGradient><path data-cppathid="10004" fill="url(#d)" d="M20.7 20.5c1.9-1.4 3.2-3.4 3.2-5.7.1-4.4-4.3-8-9.8-8.1-5.4-.1-9.9 3.3-10 7.7-.1 4.4 4.3 8 9.8 8.1 1.4 0 2.7-.2 3.9-.5 1 1.3 3.7 1.9 3.7 1.9s-1.2-1.7-.8-3.4z"/><linearGradient y2="22.194" x2="14.144" y1="7.667" x1="14.144" gradientUnits="userSpaceOnUse" id="e"><stop stop-color="#FFEBA8" offset="0"/><stop stop-color="#F8BE27" offset="1"/></linearGradient><path data-cppathid="10005" fill="url(#e)" d="M19.9 22.2c-.5-.2-1-.5-1.7-1.4-.4.1-1.7.7-4.2.7-5 0-8.9-3.3-8.8-7.1.1-3.7 4-6.8 9-6.8 2.3 0 4.7.8 6.3 2.2 1.6 1.3 2.5 3.1 2.4 4.9 0 1.9-1 3.7-3.1 5.1-.1.9-.1 1.8.1 2.4z"/><linearGradient y2="20.518" x2="14.023" y1="8.669" x1="14.023" gradientUnits="userSpaceOnUse" id="f"><stop stop-color="#FFC30F" offset="0"/><stop stop-color="#F5AE0D" offset="1"/></linearGradient><path data-cppathid="10006" fill="url(#f)" d="M13.9 20.5c-6.1-.2-7.9-4.2-7.8-6.1.2-3.2 3.3-5.8 8-5.8 2.1 0 4.3.8 5.7 2 1.4 1.1 2.1 2.6 2.1 4.1-.1 2.9-2.9 4.5-2.9 4.5s-.2.7-.2.9l-.4-.5s-1.9 1-4.5.9z"/><path data-cppathid="10007" fill="#FFF" d="M19.4 14.9c0 .7-.6 1.3-1.2 1.3-.7 0-1.3-.6-1.3-1.3 0-.7.6-1.2 1.3-1.2.6 0 1.2.5 1.2 1.2zm-5.1-1.2c-.7 0-1.2.6-1.2 1.2 0 .7.6 1.3 1.2 1.3.7 0 1.3-.6 1.3-1.3-.1-.7-.6-1.2-1.3-1.2zm-4 0c-.7 0-1.3.6-1.3 1.2 0 .7.6 1.3 1.3 1.3s1.3-.6 1.3-1.3c0-.7-.6-1.2-1.3-1.2z"/></svg>