<?xml version="1.0" encoding="UTF-8"?>
<svg xmlns="http://www.w3.org/2000/svg" onmouseup="{ if(window.parent.document.onmouseup) window.parent.document.onmouseup(arguments[0]);}" overflow="visible" preserveAspectRatio="xMinYMid meet" viewBox="0 0 24 24" height="24" width="24"><linearGradient y2="19.431" x2="10.499" x1="10.499" gradientUnits="userSpaceOnUse" id="a"><stop stop-color="#76A1F0" offset="0"/><stop stop-color="#6B90D5" offset="1"/></linearGradient><path data-cppathid="10000" fill="url(#a)" d="M19 0H2C.9 0 0 .9 0 2v11.3C0 14.4.9 15 2 15v4.4L6.1 15H19c1.1 0 2-.5 2-1.6V2c0-1.1-1-2-2-2z"/><linearGradient y2="16.838" x2="10.499" y1=".953" x1="10.499" gradientUnits="userSpaceOnUse" id="b"><stop stop-color="#BBE0F7" offset="0"/><stop stop-color="#82B4FB" offset="1"/></linearGradient><path data-cppathid="10001" fill="url(#b)" d="M3 14H2c-.4 0-1-.1-1-.6V2c0-.6.5-1 1-1h17c.5 0 1 .5 1 1v11.3c0 .6-.8.6-1 .6H5.7L3 16.8V14z"/><linearGradient y2="14.314" x2="10.498" y1="1.978" x1="10.498" gradientUnits="userSpaceOnUse" id="c"><stop stop-color="#95BFF8" offset="0"/><stop stop-color="#84ADEF" offset=".557"/><stop stop-color="#7CA4EB" offset="1"/></linearGradient><path data-cppathid="10002" fill="url(#c)" d="M4 13H2V2h17v11H5.2L4 14.3V13z"/><path data-cppathid="10003" fill="#FFF" d="M17 11H4v-1h13v1zm0-3H4v1h13V8zm0-2H4v1h13V6zm0-2H4v1h13V4z"/><linearGradient y2="23.897" x2="15" y1="7.896" x1="15" gradientUnits="userSpaceOnUse" id="d"><stop stop-color="#90C50E" offset="0"/><stop stop-color="#70A034" offset="1"/></linearGradient><path data-cppathid="10004" fill="url(#d)" d="M22 7.9H8c-1.1 0-2 .7-2 1.8v9c0 1.1.9 2 2 2v3.2l3.1-3H22c1.1 0 2-1.1 2-2.2v-9c0-1.1-.9-1.8-2-1.8z"/><linearGradient y2="21.391" x2="15" y1="8.896" x1="15" gradientUnits="userSpaceOnUse" id="e"><stop stop-color="#D9F991" offset="0"/><stop stop-color="#D7F88D" offset=".239"/><stop stop-color="#D1F383" offset=".45"/><stop stop-color="#C6EC71" offset=".651"/><stop stop-color="#B7E257" offset=".844"/><stop stop-color="#A8D73D" offset="1"/></linearGradient><path data-cppathid="10005" fill="url(#e)" d="M9 19.9H8c-.6 0-1-.7-1-1.2v-9c0-.6.4-.8 1-.8h14c.6 0 1 .2 1 .8v9c0 .6-.4 1.2-1 1.2H10.6L9 21.4v-1.5z"/><linearGradient y2="18.896" x2="15" y1="9.896" x1="15" gradientUnits="userSpaceOnUse" id="f"><stop stop-color="#B3E810" offset="0"/><stop stop-color="#90C60D" offset="1"/></linearGradient><path data-cppathid="10006" d="M10 18.9H8v-9h14v9H10" fill="url(#f)"/><path data-cppathid="10007" fill="#FFF" d="M20 16.9H10v-1h10v1zm0-3H10v1h10v-1zm0-2H10v1h10v-1z"/></svg>