<?xml version="1.0" encoding="UTF-8"?>
<svg xmlns="http://www.w3.org/2000/svg" onmouseup="{ if(window.parent.document.onmouseup) window.parent.document.onmouseup(arguments[0]);}" overflow="visible" preserveAspectRatio="xMinYMid meet" viewBox="0 0 24 24" height="24" width="24"><linearGradient y2="24.001" x2="11.999" x1="11.999" gradientUnits="userSpaceOnUse" id="a"><stop stop-color="#90C50E" offset="0"/><stop stop-color="#70A034" offset="1"/></linearGradient><path data-cppathid="10000" fill="url(#a)" d="M21.1 12.3c1 0 1.7.9 1.7.9.3.4.7.8.9.8s.3-.5.3-1V8c0-.5-.5-1-1-1h-3c-.5 0-1-.1-1-.3 0-.2.3-.7.7-1.1 0 0 .8-.9.8-2.1C20.5 1.6 18.9 0 17 0s-3.5 1.6-3.5 3.5c0 1.2.8 2.1.8 2.1.4.4.7.9.7 1.1 0 .2-.5.3-1 .3H8c-.5 0-1 .5-1 1v6c0 .5-.1 1-.3 1s-.7-.3-1.1-.7c0 0-.9-.8-2.1-.8C1.6 13.5 0 15.1 0 17s1.6 3.5 3.5 3.5c1.2 0 2.1-.8 2.1-.8.4-.4.9-.7 1.1-.7s.3.5.3 1v3c0 .5.5 1 1 1h4c.5 0 1-.1 1-.3s-.3-.6-.7-1c0 0-.6-.6-.6-1.6 0-1.4 1.3-2.5 2.7-2.5 1.4 0 2.4 1.1 2.4 2.5 0 1-.9 1.7-.9 1.7-.4.3-.8.7-.8.9s.5.3 1 .3h7c.5 0 1-.5 1-1v-6c0-.5-.1-1-.3-1s-.6.3-1 .7c0 0-.6.6-1.6.6-1.4 0-2.5-1.3-2.5-2.7s1-2.3 2.4-2.3z"/><linearGradient y2="23.001" x2="11.999" y1="1" x1="11.999" gradientUnits="userSpaceOnUse" id="b"><stop stop-color="#D9F991" offset="0"/><stop stop-color="#D7F88D" offset=".239"/><stop stop-color="#D1F383" offset=".45"/><stop stop-color="#C6EC71" offset=".651"/><stop stop-color="#B7E257" offset=".844"/><stop stop-color="#A8D73D" offset="1"/></linearGradient><path data-cppathid="10001" fill="url(#b)" d="M17 23c.4-.4.7-1.1.7-1.9 0-2-1.5-3.5-3.4-3.5-2 0-3.7 1.6-3.7 3.5 0 .9.3 1.5.6 1.9H8v-3c0-1.5-.7-2-1.3-2-.6 0-1.3.6-1.7.9 0 0-.7.6-1.5.6C2.1 19.5 1 18.4 1 17s1.1-2.5 2.5-2.5c.8 0 1.4.6 1.5.6.3.3 1.1.9 1.7.9.6 0 1.3-.5 1.3-2V8h6c1.5 0 2-.7 2-1.3 0-.6-.5-1.3-.9-1.7 0 0-.6-.7-.6-1.5C14.5 2.1 15.6 1 17 1s2.5 1.1 2.5 2.5c0 .8-.6 1.5-.6 1.5-.4.4-.9 1.1-.9 1.7 0 .6.5 1.3 2 1.3h3v4c-.4-.4-1.1-.7-1.9-.7-2 0-3.5 1.5-3.5 3.4 0 2 1.6 3.7 3.5 3.7.9 0 1.5-.3 1.9-.6V23h-6z"/><linearGradient y2="22.001" x2="11.999" y1="2" x1="11.999" gradientUnits="userSpaceOnUse" id="c"><stop stop-color="#B3E810" offset="0"/><stop stop-color="#90C60D" offset="1"/></linearGradient><path data-cppathid="10002" fill="url(#c)" d="M18.6 22c.1-.3.1-.6.1-.9 0-2.5-1.9-4.5-4.4-4.5-2.5 0-4.7 2.1-4.7 4.5 0 .3 0 .6.1.9H9v-2c0-2.1-1.2-3-2.3-3 1.1 0 2.3-.9 2.3-3V9h5c2.1 0 3-1.2 3-2.3 0-.7-.4-1.5-1.2-2.4-.1-.1-.3-.5-.3-.8 0-.8.7-1.5 1.5-1.5s1.5.7 1.5 1.5c0 .3-.3.7-.3.8-.8.9-1.2 1.7-1.2 2.4 0 1.1.9 2.3 3 2.3h2v1.4c-.3-.1-.6-.1-.9-.1-2.5 0-4.5 1.9-4.5 4.4 0 2.5 2.1 4.7 4.5 4.7.3 0 .6 0 .9-.1V22h-3.4zM3.5 18.5c-.8 0-1.5-.7-1.5-1.5s.7-1.5 1.5-1.5c.3 0 .7.3.8.3.9.8 1.7 1.2 2.4 1.2-.7 0-1.5.4-2.4 1.2-.1.1-.5.3-.8.3z"/></svg>