<?xml version="1.0" encoding="UTF-8"?>
<svg xmlns="http://www.w3.org/2000/svg" onmouseup="{ if(window.parent.document.onmouseup) window.parent.document.onmouseup(arguments[0]);}" overflow="visible" preserveAspectRatio="xMinYMid meet" viewBox="0 0 24 24" height="24" width="24"><linearGradient y2="20" x2="14.005" x1="14.005" gradientUnits="userSpaceOnUse" id="a"><stop stop-color="#95BFF8" offset="0"/><stop stop-color="#84ADEF" offset=".557"/><stop stop-color="#7CA4EB" offset="1"/></linearGradient><path data-cppathid="10000" d="M16.3 0H6v20h16V6.6" fill="url(#a)"/><linearGradient y2="19" x2="14.005" y1="1" x1="14.005" gradientUnits="userSpaceOnUse" id="b"><stop stop-color="#E7F4FC" offset="0"/><stop stop-color="#DEEFFC" offset="1"/></linearGradient><path data-cppathid="10001" d="M7 19V1h8.8L21 6.9V19" fill="url(#b)"/><linearGradient y2="18" x2="14.005" y1="2" x1="14.005" gradientUnits="userSpaceOnUse" id="c"><stop stop-color="#CEE9F9" offset="0"/><stop stop-color="#BBDFF8" offset="1"/></linearGradient><path data-cppathid="10002" d="M8 18V2h7.4L20 7.3V18" fill="url(#c)"/><linearGradient y2="7.785" x2="18.31" x1="18.31" gradientUnits="userSpaceOnUse" id="d"><stop stop-color="#95BFF8" offset="0"/><stop stop-color="#84ADEF" offset=".557"/><stop stop-color="#7CA4EB" offset="1"/></linearGradient><path data-cppathid="10003" fill="url(#d)" d="M14.8 7.5s5.2-1.3 7.2.3V6.6L16.2 0h-1.6c2.2 3 .2 7.5.2 7.5z"/><linearGradient y2="3.871" x2="18.591" y1="6.162" x1="16.3" gradientUnits="userSpaceOnUse" id="e"><stop stop-color="#E7F4FC" offset="0"/><stop stop-color="#E5F3FC" offset=".518"/><stop stop-color="#DEF0FB" offset=".705"/><stop stop-color="#D3EBFA" offset=".837"/><stop stop-color="#CEE9F9" offset=".872"/><stop stop-color="#BDD8F0" offset="1"/></linearGradient><path data-cppathid="10004" fill="url(#e)" d="M16.3 6.2c.3-1.2.5-2.9.1-4.4l4 4.4c-.4-.1-1-.2-1.6-.2-.9 0-1.8.1-2.5.2z"/><linearGradient y2="23.885" x2="11.967" y1="12.167" x1="11.967" gradientUnits="userSpaceOnUse" id="f"><stop stop-color="#DDA976" offset="0"/><stop stop-color="#9F6B37" offset="1"/></linearGradient><path data-cppathid="10005" fill="url(#f)" d="M10 18.9c-.3-2.2 9.4.5 9.3-1.4 0-.8-8.4-3.4-11.4-4.1-.9-.2-6.5-1.2-6.5-1.2-.2.1-1.3 3.3-1.4 5.2.5.3 7.3 6.7 10 6.5 2.7-.2 14.2-3.6 13.9-4.7-.6-2.1-13.6 2.1-13.9-.3z"/><linearGradient y2="22.934" x2="11.489" y1="13.28" x1="11.489" gradientUnits="userSpaceOnUse" id="g"><stop stop-color="#FDA" offset="0"/><stop stop-color="#E3B17E" offset="1"/></linearGradient><path data-cppathid="10006" fill="url(#g)" d="M1.7 17.4c-.3-.2-.5-.4-.7-.5.1-1.2.6-2.8.9-3.6 1.8.3 5.1.9 5.7 1 2.6.6 9.4 2.3 9.7 3 .5 1.1-8.3-1.9-8.1 1.7.2 3.5 12.4-.6 12.7.5.2.7-10.1 3.6-12 3.5-2-.2-6.6-4.2-8.2-5.6z"/><linearGradient y2="21.934" x2="7.593" y1="14.414" x1="7.593" gradientUnits="userSpaceOnUse" id="h"><stop stop-color="#F1C592" offset="0"/><stop stop-color="#E1AF7C" offset="1"/></linearGradient><path data-cppathid="10007" fill="url(#h)" d="M10.1 21.9c-.8-.1-2.8-1-7.6-5.2l-.3-.3c.1-.7.3-1.4.5-2.1 2.1.4 4.3.8 4.7.9 1.5.4 2.7.7 3.8.9-1 .1-1.8.4-2.3 1-.3.3-.7.9-.6 1.9.1 1.1.8 2.4 4 2.4h.9c-1.4.3-2.5.5-3.1.5z"/></svg>