<?xml version="1.0" encoding="UTF-8"?>
<svg xmlns="http://www.w3.org/2000/svg" onmouseup="{ if(window.parent.document.onmouseup) window.parent.document.onmouseup(arguments[0]);}" overflow="visible" preserveAspectRatio="xMinYMid meet" viewBox="-3 0 24 24" height="24" width="24"><linearGradient y2="24" x2="9.499" x1="9.499" gradientUnits="userSpaceOnUse" id="a"><stop stop-color="#95BFF8" offset="0"/><stop stop-color="#84ADEF" offset=".557"/><stop stop-color="#7CA4EB" offset="1"/></linearGradient><path data-cppathid="10000" d="M11.5 0H0v24h19V7.9" fill="url(#a)"/><linearGradient y2="23" x2="9.499" y1="1" x1="9.499" gradientUnits="userSpaceOnUse" id="b"><stop stop-color="#E7F4FC" offset="0"/><stop stop-color="#DEEFFC" offset="1"/></linearGradient><path data-cppathid="10001" d="M1 23V1h10.1L18 8.3V23" fill="url(#b)"/><linearGradient y2="22" x2="9.499" y1="2" x1="9.499" gradientUnits="userSpaceOnUse" id="c"><stop stop-color="#CEE9F9" offset="0"/><stop stop-color="#BBDFF8" offset="1"/></linearGradient><path data-cppathid="10002" d="M2 22V2h8.6L17 8.7V22" fill="url(#c)"/><linearGradient y2="9.359" x2="14.245" x1="14.245" gradientUnits="userSpaceOnUse" id="d"><stop stop-color="#95BFF8" offset="0"/><stop stop-color="#84ADEF" offset=".557"/><stop stop-color="#7CA4EB" offset="1"/></linearGradient><path data-cppathid="10003" fill="url(#d)" d="M10 9s5.2-1.5 9 .4V7.9L11.5 0h-2c2.6 3.7.5 9 .5 9z"/><linearGradient y2="4.417" x2="14.45" y1="7.545" x1="11.322" gradientUnits="userSpaceOnUse" id="e"><stop stop-color="#E7F4FC" offset="0"/><stop stop-color="#E5F3FC" offset=".518"/><stop stop-color="#DEF0FB" offset=".705"/><stop stop-color="#D3EBFA" offset=".837"/><stop stop-color="#CEE9F9" offset=".872"/><stop stop-color="#BDD8F0" offset="1"/></linearGradient><path data-cppathid="10004" fill="url(#e)" d="M17.5 7.8c-.9-.2-2-.3-3.1-.3s-2.1.1-3 .3c.4-1.6.7-4.1-.2-6.4l6.3 6.4z"/></svg>