<?xml version="1.0" encoding="UTF-8"?>
<svg xmlns="http://www.w3.org/2000/svg" onmouseup="{ if(window.parent.document.onmouseup) window.parent.document.onmouseup(arguments[0]);}" overflow="visible" preserveAspectRatio="xMinYMid meet" viewBox="-0.1 -2 24 24" height="24" width="24"><linearGradient y2="20" x2="11.935" x1="11.935" gradientUnits="userSpaceOnUse" id="a"><stop stop-color="#76A1F0" offset="0"/><stop stop-color="#6B90D5" offset="1"/></linearGradient><path data-cppathid="10000" fill="url(#a)" d="M21.9 19c0 .5-.5 1-1 1h-18c-.5 0-1-.5-1-1V1.1c0-.5.5-1.1 1-1.1h4c.5 0 1.4.3 1.8.6l.9.7c.5.4 1.3.7 1.8.7h9.5c.5 0 1 .5 1 1v16z"/><linearGradient y2="19" x2="11.935" y1=".989" x1="11.935" gradientUnits="userSpaceOnUse" id="b"><stop stop-color="#BBE0F7" offset="0"/><stop stop-color="#82B4FB" offset="1"/></linearGradient><path data-cppathid="10001" fill="url(#b)" d="M2.9 19V1.1L3 1h3.9c.3 0 .9.2 1.2.4l.9.8c.7.4 1.7.8 2.4.8h9.5v16h-18z"/><linearGradient y2="18" x2="11.935" y1="1.992" x1="11.935" gradientUnits="userSpaceOnUse" id="c"><stop stop-color="#95BFF8" offset="0"/><stop stop-color="#84ADEF" offset=".557"/><stop stop-color="#7CA4EB" offset="1"/></linearGradient><path data-cppathid="10002" fill="url(#c)" d="M3.9 18V2h3c.1 0 .5.1.6.2l.9.8c.8.6 2.1 1 3 1h8.5v14h-16z"/><linearGradient y2="20" x2="11.936" y1="5" x1="11.936" gradientUnits="userSpaceOnUse" id="d"><stop stop-color="#76A1F0" offset="0"/><stop stop-color="#6B90D5" offset="1"/></linearGradient><path data-cppathid="10003" fill="url(#d)" d="M23 19c0 .5-.5 1-1.1 1h-20c-.5 0-1-.5-1.1-1L0 6c0-.5.4-1 .9-1h22c.5 0 1 .5.9 1L23 19z"/><linearGradient y2="19" x2="11.967" y1="5.954" x1="11.967" gradientUnits="userSpaceOnUse" id="e"><stop stop-color="#BBE0F7" offset="0"/><stop stop-color="#82B4FB" offset="1"/></linearGradient><path data-cppathid="10004" fill="url(#e)" d="M1.9 19l-.1-.1L1 6h21.9L22 18.9s0 .1-.1.1h-20z"/><linearGradient y2="18" x2="11.966" y1="6.957" x1="11.966" gradientUnits="userSpaceOnUse" id="f"><stop stop-color="#95BFF8" offset="0"/><stop stop-color="#84ADEF" offset=".557"/><stop stop-color="#7CA4EB" offset="1"/></linearGradient><path data-cppathid="10005" d="M2.8 18L2.1 7h19.8l-.8 11" fill="url(#f)"/></svg>