<?xml version="1.0" encoding="UTF-8"?>
<svg xmlns="http://www.w3.org/2000/svg" onmouseup="{ if(window.parent.document.onmouseup) window.parent.document.onmouseup(arguments[0]);}" overflow="visible" preserveAspectRatio="xMinYMid meet" viewBox="-2 0 24 24" height="24" width="24"><linearGradient y2="24" x2="9.999" x1="9.999" gradientUnits="userSpaceOnUse" id="a"><stop stop-color="#95BFF8" offset="0"/><stop stop-color="#84ADEF" offset=".557"/><stop stop-color="#7CA4EB" offset="1"/></linearGradient><path data-cppathid="10000" d="M12.5 0H0v24h20V7.9" fill="url(#a)"/><linearGradient y2="23" x2="9.999" y1="1" x1="9.999" gradientUnits="userSpaceOnUse" id="b"><stop stop-color="#E7F4FC" offset="0"/><stop stop-color="#DEEFFC" offset="1"/></linearGradient><path data-cppathid="10001" d="M12.1 1H1v22h18V8.3" fill="url(#b)"/><linearGradient y2="22" x2="9.999" y1="2" x1="9.999" gradientUnits="userSpaceOnUse" id="c"><stop stop-color="#CEE9F9" offset="0"/><stop stop-color="#BBDFF8" offset="1"/></linearGradient><path data-cppathid="10002" d="M11.6 2H2v20h16V8.7" fill="url(#c)"/><path data-cppathid="10003" fill="#FFF" d="M16 21H4v-1h12v1zm0-3H4v1h12v-1zm0-2H4v1h12v-1zm0-2H4v1h12v-1z"/><linearGradient y2="12" x2="9.999" y1="4" x1="9.999" gradientUnits="userSpaceOnUse" id="d"><stop stop-color="#76A1F0" offset="0"/><stop stop-color="#6B90D5" offset="1"/></linearGradient><path data-cppathid="10004" d="M15.3 4H3v8h14V5.8" fill="url(#d)"/><linearGradient y2="11" x2="9.999" y1="9" x1="9.999" gradientUnits="userSpaceOnUse" id="e"><stop stop-color="#57C3F6" offset="0"/><stop stop-color="#83D3F8" offset=".165"/><stop stop-color="#AFE3FB" offset=".355"/><stop stop-color="#D2EFFD" offset=".54"/><stop stop-color="#EBF8FE" offset=".713"/><stop stop-color="#FAFDFF" offset=".871"/><stop stop-color="#FFF" offset="1"/></linearGradient><path data-cppathid="10005" d="M4 9h12v2H4z" fill="url(#e)"/><path data-cppathid="10006" fill="#F2EFD5" d="M12.4 10.9c-.5-.2-1.1-.3-2.7-.4-1.5-.1-.9-.4-2-.8-1-.5-3.7-.3-3.7-.3V11h8.6s-.1-.1-.2-.1z"/><linearGradient y2="10.248" x2="12.296" y1="10.248" x1="4" gradientUnits="userSpaceOnUse" id="f"><stop stop-color="#F8E5B5" offset="0"/><stop stop-color="#F9E5B6" offset="1"/></linearGradient><path data-cppathid="10007" fill="url(#f)" d="M9.7 10.7c-1.5-.1-.9-.6-2-1-1-.4-3.7 0-3.7 0V11h8.3c-.8 0-1.1-.2-2.6-.3z"/><linearGradient y2="10.941" x2="8.163" y1="1.567" x1="12.534" gradientUnits="userSpaceOnUse" id="g"><stop stop-color="#57C3F6" offset="0"/><stop stop-color="#8AD5F9" offset=".229"/><stop stop-color="#BCE7FB" offset=".483"/><stop stop-color="#E1F4FD" offset=".705"/><stop stop-color="#F7FCFF" offset=".885"/><stop stop-color="#FFF" offset="1"/></linearGradient><path data-cppathid="10008" d="M4 5h12v4H4z" fill="url(#g)"/><path data-cppathid="10009" fill="#FFF" d="M11.2 5.6s-.2-.4-.7-.2c-.4.3-.1.7-.1.7h-.1c-.1 0 0 .2 0 .2s-.3 0-.4.2c-.3.4-.1.5-.1.5s-.5.4-.2.8.6.1.6.1.2.3.6.3c.4.1.6-.1.6-.1s.3.2.5.1c.5 0 .6-.2.6-.2s.6.3.8-.3c.1-.4-.3-.6-.3-.6s.1-.4-.2-.6-.6 0-.6 0 .1 0 0-.1c0-.1-.3-.1-.3-.1s.1-.6-.2-.8c-.3-.2-.5.1-.5.1zM8.6 6.9s-.1-.1-.2 0c-.1 0 0 .1 0 .1s-.1 0-.1.1v.1s-.1.1 0 .2.2 0 .2 0 .1.1.2.1h.2s.1.1.2 0l-.1.1s.2.1.2-.1c0-.1-.1-.2-.1-.2s0-.1-.1-.2H8.7s0-.2-.1-.2c.1-.1 0 0 0 0z"/><linearGradient y2="9.359" x2="15.245" x1="15.245" gradientUnits="userSpaceOnUse" id="h"><stop stop-color="#95BFF8" offset="0"/><stop stop-color="#84ADEF" offset=".557"/><stop stop-color="#7CA4EB" offset="1"/></linearGradient><path data-cppathid="10010" fill="url(#h)" d="M11 9s5.2-1.5 9 .4V7.9L12.5 0h-2c2.6 3.7.5 9 .5 9z"/><linearGradient y2="4.417" x2="15.45" y1="7.545" x1="12.322" gradientUnits="userSpaceOnUse" id="i"><stop stop-color="#E7F4FC" offset="0"/><stop stop-color="#E5F3FC" offset=".518"/><stop stop-color="#DEF0FB" offset=".705"/><stop stop-color="#D3EBFA" offset=".837"/><stop stop-color="#CEE9F9" offset=".872"/><stop stop-color="#BDD8F0" offset="1"/></linearGradient><path data-cppathid="10011" fill="url(#i)" d="M18.5 7.8c-.9-.2-2-.3-3.1-.3s-2.1.1-3 .3c.4-1.6.7-4.1-.2-6.4l6.3 6.4z"/></svg>