<?xml version="1.0" encoding="UTF-8"?>
<svg xmlns="http://www.w3.org/2000/svg" onmouseup="{ if(window.parent.document.onmouseup) window.parent.document.onmouseup(arguments[0]);}" overflow="visible" preserveAspectRatio="xMinYMid meet" viewBox="-2 0 24 24" height="24" width="24"><linearGradient y2="24" x2="12.001" x1="12.001" gradientUnits="userSpaceOnUse" id="a"><stop stop-color="#90C50E" offset="0"/><stop stop-color="#70A034" offset="1"/></linearGradient><path data-cppathid="10000" d="M4 0h16v24H4z" fill="url(#a)"/><linearGradient y2="23" x2="12.001" y1="1" x1="12.001" gradientUnits="userSpaceOnUse" id="b"><stop stop-color="#D9F991" offset="0"/><stop stop-color="#D7F88D" offset=".239"/><stop stop-color="#D1F383" offset=".45"/><stop stop-color="#C6EC71" offset=".651"/><stop stop-color="#B7E257" offset=".844"/><stop stop-color="#A8D73D" offset="1"/></linearGradient><path data-cppathid="10001" d="M5 1h14v22H5z" fill="url(#b)"/><linearGradient y2="22" x2="12.001" y1="2" x1="12.001" gradientUnits="userSpaceOnUse" id="c"><stop stop-color="#B3E810" offset="0"/><stop stop-color="#90C60D" offset="1"/></linearGradient><path data-cppathid="10002" d="M6 2h12v20H6z" fill="url(#c)"/><linearGradient y2="9" x2="12.001" y1="4" x1="12.001" gradientUnits="userSpaceOnUse" id="d"><stop stop-color="#90C50E" offset="0"/><stop stop-color="#70A034" offset="1"/></linearGradient><path data-cppathid="10003" fill="url(#d)" d="M7 4v5h10V4H7zm9 4H8V5h8v3z"/><linearGradient y2="24" x2="2.5" x1="2.5" gradientUnits="userSpaceOnUse" id="e"><stop stop-color="#656565" offset="0"/><stop stop-color="#646464" offset=".013"/><stop stop-color="#3C3C3C" offset=".445"/><stop stop-color="#242424" offset=".789"/><stop stop-color="#1B1B1B" offset="1"/></linearGradient><path data-cppathid="10004" fill="url(#e)" d="M4 0H1C.5 0 0 .5 0 1v22c0 .5.5 1 1 1h4V0H4z"/><linearGradient y2="23" x2="2.5" y1="1" x1="2.5" gradientUnits="userSpaceOnUse" id="f"><stop stop-color="#8E8E8E" offset="0"/><stop stop-color="#8A8A8A" offset=".042"/><stop stop-color="#626262" offset=".461"/><stop stop-color="#4A4A4A" offset=".795"/><stop stop-color="#414141" offset="1"/></linearGradient><path data-cppathid="10005" d="M1 1h3v22H1z" fill="url(#f)"/><linearGradient y2="22" x2="2.5" y1="2" x1="2.5" gradientUnits="userSpaceOnUse" id="g"><stop stop-color="#7C7C7C" offset="0"/><stop stop-color="#5C5C5C" offset=".39"/><stop stop-color="#444" offset=".768"/><stop stop-color="#3B3B3B" offset="1"/></linearGradient><path data-cppathid="10006" d="M2 2h1v20H2z" fill="url(#g)"/></svg>