<?xml version="1.0" encoding="UTF-8"?>
<svg xmlns="http://www.w3.org/2000/svg" onmouseup="{ if(window.parent.document.onmouseup) window.parent.document.onmouseup(arguments[0]);}" overflow="visible" preserveAspectRatio="xMinYMid meet" viewBox="-2 0 24 24" height="24" width="24"><linearGradient y2="22" x2="17.5" y1="16" x1="17.5" gradientUnits="userSpaceOnUse" id="a"><stop stop-color="#DB6D17" offset="0"/><stop stop-color="#BF3B08" offset="1"/></linearGradient><path data-cppathid="10000" d="M15 16h5v6h-5z" fill="url(#a)"/><linearGradient y2="21" x2="17.5" y1="17" x1="17.5" gradientUnits="userSpaceOnUse" id="b"><stop stop-color="#F6A55E" offset="0"/><stop stop-color="#EA5B03" offset="1"/></linearGradient><path data-cppathid="10001" d="M16 17h3v4h-3z" fill="url(#b)"/><linearGradient y2="20" x2="17.5" y1="18" x1="17.5" gradientUnits="userSpaceOnUse" id="c"><stop stop-color="#F17219" offset="0"/><stop stop-color="#EA5B03" offset="1"/></linearGradient><path data-cppathid="10002" d="M17 18h1v2h-1z" fill="url(#c)"/><linearGradient y2="15.001" x2="17.5" y1="9" x1="17.5" gradientUnits="userSpaceOnUse" id="d"><stop stop-color="#90C50E" offset="0"/><stop stop-color="#70A034" offset="1"/></linearGradient><path data-cppathid="10003" d="M15 9h5v6h-5z" fill="url(#d)"/><linearGradient y2="14.001" x2="17.5" y1="10" x1="17.5" gradientUnits="userSpaceOnUse" id="e"><stop stop-color="#D9F991" offset="0"/><stop stop-color="#D7F88D" offset=".239"/><stop stop-color="#D1F383" offset=".45"/><stop stop-color="#C6EC71" offset=".651"/><stop stop-color="#B7E257" offset=".844"/><stop stop-color="#A8D73D" offset="1"/></linearGradient><path data-cppathid="10004" d="M16 10h3v4h-3z" fill="url(#e)"/><linearGradient y2="13" x2="17.5" y1="11" x1="17.5" gradientUnits="userSpaceOnUse" id="f"><stop stop-color="#B3E810" offset="0"/><stop stop-color="#90C60D" offset="1"/></linearGradient><path data-cppathid="10005" d="M17 11h1v2h-1z" fill="url(#f)"/><linearGradient y2="24" x2="8.499" x1="8.499" gradientUnits="userSpaceOnUse" id="g"><stop stop-color="#95BFF8" offset="0"/><stop stop-color="#84ADEF" offset=".557"/><stop stop-color="#7CA4EB" offset="1"/></linearGradient><path data-cppathid="10006" d="M0 0h17v24H0z" fill="url(#g)"/><linearGradient y2="23" x2="8.499" y1="1" x1="8.499" gradientUnits="userSpaceOnUse" id="h"><stop stop-color="#E7F4FC" offset="0"/><stop stop-color="#DEEFFC" offset="1"/></linearGradient><path data-cppathid="10007" d="M1 1h15v22H1z" fill="url(#h)"/><linearGradient y2="22" x2="8.499" y1="2" x1="8.499" gradientUnits="userSpaceOnUse" id="i"><stop stop-color="#CEE9F9" offset="0"/><stop stop-color="#BBDFF8" offset="1"/></linearGradient><path data-cppathid="10008" d="M2 2h13v20H2z" fill="url(#i)"/><linearGradient y2="8" x2="17.5" y1="2" x1="17.5" gradientUnits="userSpaceOnUse" id="j"><stop stop-color="#76A1F0" offset="0"/><stop stop-color="#6B90D5" offset="1"/></linearGradient><path data-cppathid="10009" d="M15 2h5v6h-5z" fill="url(#j)"/><linearGradient y2="7" x2="17.5" y1="3" x1="17.5" gradientUnits="userSpaceOnUse" id="k"><stop stop-color="#BBE0F7" offset="0"/><stop stop-color="#82B4FB" offset="1"/></linearGradient><path data-cppathid="10010" d="M16 3h3v4h-3z" fill="url(#k)"/><linearGradient y2="6" x2="17.5" y1="4" x1="17.5" gradientUnits="userSpaceOnUse" id="l"><stop stop-color="#95BFF8" offset="0"/><stop stop-color="#84ADEF" offset=".557"/><stop stop-color="#7CA4EB" offset="1"/></linearGradient><path data-cppathid="10011" d="M17 4h1v2h-1z" fill="url(#l)"/><linearGradient y2="15.97" x2="12.425" y1="10.729" x1="12.425" gradientUnits="userSpaceOnUse" id="m"><stop stop-color="#76A1F0" offset="0"/><stop stop-color="#739DE9" offset=".055"/><stop stop-color="#6F95DE" offset=".204"/><stop stop-color="#6C91D7" offset=".415"/><stop stop-color="#6B90D5" offset="1"/></linearGradient><path data-cppathid="10012" fill="url(#m)" d="M12.7 15.2c-.7.5-1.2.8-1.7.8-.3 0-.5-.1-.7-.3-.2-.2-.3-.4-.3-.7 0-.4.2-.7.5-1 .3-.3 1-.7 2.2-1.2v-.5c0-.4 0-.6-.1-.7 0-.1-.1-.2-.2-.3-.1-.1-.2-.1-.4-.1s-.4.1-.6.2c-.1.1-.1.1-.1.2s0 .2.2.3c.1.2.2.3.2.4 0 .2-.1.3-.2.4-.1.1-.3.2-.5.2s-.4-.1-.6-.2-.2-.3-.2-.5c0-.3.1-.5.3-.7.2-.2.5-.4.9-.5s.7-.2 1.1-.2c.5 0 .9.1 1.1.3.3.2.5.4.5.7.1.2.1.5.1 1v2.3c0 .1 0 .1.1.1h.1c.1 0 .2-.1.3-.2l.2.1c-.2.3-.4.5-.6.6-.2.1-.4.2-.7.2-.3 0-.5-.1-.7-.2-.1-.1-.2-.3-.2-.5zm0-.4v-1.7c-.4.3-.8.5-1 .8-.1.2-.2.4-.2.6 0 .2.1.3.2.4.1.1.2.1.4.1.1.1.3 0 .6-.2z"/><linearGradient y2="15.701" x2="6.354" y1="8.267" x1="6.354" gradientUnits="userSpaceOnUse" id="n"><stop stop-color="#76A1F0" offset="0"/><stop stop-color="#739DE9" offset=".055"/><stop stop-color="#6F95DE" offset=".204"/><stop stop-color="#6C91D7" offset=".415"/><stop stop-color="#6B90D5" offset="1"/></linearGradient><path data-cppathid="10013" fill="url(#n)" d="M7 13.6H4.4l-.3.7c-.1.2-.2.4-.2.6 0 .2.1.4.2.5.1.1.3.1.7.1v.2H2.5v-.2c.3 0 .5-.1.6-.3.2-.2.4-.5.6-1.1l2.6-5.8h.1l2.6 6c.2.6.5.9.6 1.1.1.1.3.2.5.2v.2H6.7v-.2h.1c.3 0 .5 0 .6-.1.1-.1.1-.1.1-.2v-.2l-.2-.4-.3-1.1zm-.2-.4l-1.1-2.5-1.1 2.5h2.2z"/></svg>