<?xml version="1.0" encoding="UTF-8"?>
<svg xmlns="http://www.w3.org/2000/svg" onmouseup="{ if(window.parent.document.onmouseup) window.parent.document.onmouseup(arguments[0]);}" overflow="visible" preserveAspectRatio="xMinYMid meet" viewBox="-2 -1 24 24" height="24" width="24"><radialGradient gradientUnits="userSpaceOnUse" r="7.492" cy="19.5" cx="10" id="a"><stop stop-color="#76A1F0" offset="0"/><stop stop-color="#6B90D5" offset="1"/></radialGradient><path data-cppathid="10000" fill="url(#a)" d="M20 21c0 1.1-.9 2-2 2H2c-1.1 0-2-.9-2-2v-3c0-1.1.9-2 2-2h16c1.1 0 2 .9 2 2v3z"/><radialGradient gradientUnits="userSpaceOnUse" r="6.605" cy="19.5" cx="10" id="b"><stop stop-color="#BBE0F7" offset="0"/><stop stop-color="#82B4FB" offset="1"/></radialGradient><path data-cppathid="10001" fill="url(#b)" d="M2 22c-.6 0-1-.4-1-1v-3c0-.6.4-1 1-1h16c.6 0 1 .4 1 1v3c0 .6-.4 1-1 1H2z"/><radialGradient gradientUnits="userSpaceOnUse" r="5.755" cy="19.5" cx="10" id="c"><stop stop-color="#95BFF8" offset="0"/><stop stop-color="#84ADEF" offset=".557"/><stop stop-color="#7CA4EB" offset="1"/></radialGradient><path data-cppathid="10002" d="M2 18h16v3H2z" fill="url(#c)"/><radialGradient gradientUnits="userSpaceOnUse" r="7.492" cy="11.5" cx="10" id="d"><stop stop-color="#76A1F0" offset="0"/><stop stop-color="#6B90D5" offset="1"/></radialGradient><path data-cppathid="10003" fill="url(#d)" d="M20 13c0 1.1-.9 2-2 2H2c-1.1 0-2-.9-2-2v-3c0-1.1.9-2 2-2h16c1.1 0 2 .9 2 2v3z"/><radialGradient gradientUnits="userSpaceOnUse" r="6.605" cy="11.5" cx="10" id="e"><stop stop-color="#BBE0F7" offset="0"/><stop stop-color="#82B4FB" offset="1"/></radialGradient><path data-cppathid="10004" fill="url(#e)" d="M2 14c-.6 0-1-.4-1-1v-3c0-.6.4-1 1-1h16c.6 0 1 .4 1 1v3c0 .6-.4 1-1 1H2z"/><radialGradient gradientUnits="userSpaceOnUse" r="5.755" cy="11.5" cx="10" id="f"><stop stop-color="#95BFF8" offset="0"/><stop stop-color="#84ADEF" offset=".557"/><stop stop-color="#7CA4EB" offset="1"/></radialGradient><path data-cppathid="10005" d="M2 10h16v3H2z" fill="url(#f)"/><radialGradient gradientUnits="userSpaceOnUse" r="7.492" cy="3.5" cx="10" id="g"><stop stop-color="#76A1F0" offset="0"/><stop stop-color="#6B90D5" offset="1"/></radialGradient><path data-cppathid="10006" fill="url(#g)" d="M20 5c0 1.1-.9 2-2 2H2C.9 7 0 6.1 0 5V2C0 .9.9 0 2 0h16c1.1 0 2 .9 2 2v3z"/><radialGradient gradientUnits="userSpaceOnUse" r="6.605" cy="3.5" cx="10" id="h"><stop stop-color="#BBE0F7" offset="0"/><stop stop-color="#82B4FB" offset="1"/></radialGradient><path data-cppathid="10007" fill="url(#h)" d="M2 6c-.6 0-1-.4-1-1V2c0-.6.4-1 1-1h16c.6 0 1 .4 1 1v3c0 .6-.4 1-1 1H2z"/><radialGradient gradientUnits="userSpaceOnUse" r="5.755" cy="3.5" cx="10" id="i"><stop stop-color="#95BFF8" offset="0"/><stop stop-color="#84ADEF" offset=".557"/><stop stop-color="#7CA4EB" offset="1"/></radialGradient><path data-cppathid="10008" d="M2 2h16v3H2z" fill="url(#i)"/></svg>