<?xml version="1.0" encoding="UTF-8"?>
<svg xmlns="http://www.w3.org/2000/svg" onmouseup="{ if(window.parent.document.onmouseup) window.parent.document.onmouseup(arguments[0]);}" overflow="visible" preserveAspectRatio="xMinYMid meet" viewBox="0 0 24 24" height="24" width="24"><linearGradient y2="23.98" x2="7.768" y1="10.223" x1="7.768" gradientUnits="userSpaceOnUse" id="a"><stop stop-color="#DB6D17" offset="0"/><stop stop-color="#BF3B08" offset="1"/></linearGradient><path data-cppathid="10000" fill="url(#a)" d="M10.9 19.1c-1.1-.8-1.7-1.1-2-2.4-.2-1.1-1.3-6.4-1.3-6.4l-4.9 1s.9 4.6 1.8 9 1 4.3 6.8 3.1c2.4-.6 1.5-2.9-.4-4.3z"/><linearGradient y2="22.98" x2="7.857" y1="11.399" x1="7.857" gradientUnits="userSpaceOnUse" id="b"><stop stop-color="#F6A55E" offset="0"/><stop stop-color="#EA5B03" offset="1"/></linearGradient><path data-cppathid="10001" fill="url(#b)" d="M7 23c-.8 0-.9 0-1.5-3l-1.6-8 2.9-.6L8 16.9c.3 1.6 1 2.1 1.9 2.7l.4.3c1.1.8 1.5 1.7 1.4 2.1 0 .2-.5.3-.6.3l-.5.1c-1.6.3-2.8.6-3.6.6z"/><linearGradient y2="21.893" x2="7.737" y1="12.576" x1="7.737" gradientUnits="userSpaceOnUse" id="c"><stop stop-color="#F17219" offset="0"/><stop stop-color="#EA5B03" offset="1"/></linearGradient><path data-cppathid="10002" fill="url(#c)" d="M7.7 21.9c-.7 0-.7 0-1.2-2.1l-1.4-7 1-.2.9 4.5c.4 1.9 1.4 2.7 2.3 3.3l.4.3c1.1.9.9.7-2 1.2z"/><linearGradient y2="19.004" x2="11.001" x1="11.001" gradientUnits="userSpaceOnUse" id="d"><stop stop-color="#C3C3C3" offset="0"/><stop stop-color="#ACACAC" offset="1"/></linearGradient><path data-cppathid="10003" fill="url(#d)" d="M12.5 5H4.6C2.1 5 0 7.2 0 9.5S2.1 14 4.6 14h7.6s5.7 0 9.8 5V9.5 0c-3.3 4.8-9.5 5-9.5 5z"/><linearGradient y2="16.534" x2="11.001" y1="2.608" x1="11.001" gradientUnits="userSpaceOnUse" id="e"><stop stop-color="#E9E9E9" offset="0"/><stop stop-color="#C4C4C4" offset="1"/></linearGradient><path data-cppathid="10004" fill="url(#e)" d="M21 16.5C17 13 12.5 13 12.2 13H4.6C2.7 13 1 11.4 1 9.5S2.7 6 4.6 6h7.8c.3 0 4.9-.2 8.5-3.4v13.9z"/><linearGradient y2="14.527" x2="11.001" y1="4.599" x1="11.001" gradientUnits="userSpaceOnUse" id="f"><stop stop-color="#F7F7F7" offset="0"/><stop stop-color="#FCFCFC" offset=".104"/><stop stop-color="#FFF" offset=".329"/><stop stop-color="#E8E8E8" offset=".569"/><stop stop-color="#D7D7D7" offset=".815"/><stop stop-color="#D1D1D1" offset="1"/></linearGradient><path data-cppathid="10005" fill="url(#f)" d="M20 14.5C16.2 12 12.4 12 12.2 12H4.6C3.3 12 2 10.8 2 9.5S3.3 7 4.6 7h7.8c.2 0 4-.2 7.5-2.4v9.9z"/><linearGradient y2="14.002" x2="5.501" y1="5.002" x1="5.501" gradientUnits="userSpaceOnUse" id="g"><stop stop-color="#DB6D17" offset="0"/><stop stop-color="#BF3B08" offset="1"/></linearGradient><path data-cppathid="10006" fill="url(#g)" d="M11 5H4.6C2.1 5 0 7.2 0 9.5S2.1 14 4.6 14H11V5z"/><linearGradient y2="13.002" x2="6.001" y1="6.002" x1="6.001" gradientUnits="userSpaceOnUse" id="h"><stop stop-color="#F6A55E" offset="0"/><stop stop-color="#EA5B03" offset="1"/></linearGradient><path data-cppathid="10007" fill="url(#h)" d="M11 6H4.6C2.7 6 1 7.6 1 9.5S2.7 13 4.6 13H11V6z"/><linearGradient y2="12.002" x2="6.501" y1="7.002" x1="6.501" gradientUnits="userSpaceOnUse" id="i"><stop stop-color="#F6A55E" offset=".22"/><stop stop-color="#F28C3F" offset=".508"/><stop stop-color="#EA5B03" offset="1"/></linearGradient><path data-cppathid="10008" fill="url(#i)" d="M11 7H4.6C3.3 7 2 8.2 2 9.5S3.3 12 4.6 12H11V7z"/><linearGradient y2="19.002" x2="22.002" y1=".001" x1="22.002" gradientUnits="userSpaceOnUse" id="j"><stop stop-color="#DB6D17" offset="0"/><stop stop-color="#BF3B08" offset="1"/></linearGradient><path data-cppathid="10009" fill="url(#j)" d="M20 17c0 1.1.9 2 2 2s2-.9 2-2V2c0-1.1-.9-2-2-2s-2 .9-2 2v15z"/><linearGradient y2="18.002" x2="22.002" y1="1.002" x1="22.002" gradientUnits="userSpaceOnUse" id="k"><stop stop-color="#F6A55E" offset="0"/><stop stop-color="#EA5B03" offset="1"/></linearGradient><path data-cppathid="10010" fill="url(#k)" d="M22 18c-.6 0-1-.4-1-1V2c0-.6.4-1 1-1s1 .4 1 1v15c0 .6-.4 1-1 1z"/><linearGradient y2="18.002" x2="22.002" y1="1.002" x1="22.002" gradientUnits="userSpaceOnUse" id="l"><stop stop-color="#F17219" offset="0"/><stop stop-color="#F38A39" offset=".09"/><stop stop-color="#F59E54" offset=".183"/><stop stop-color="#F6A55E" offset=".238"/><stop stop-color="#F5A35C" offset=".246"/><stop stop-color="#EC8740" offset=".381"/><stop stop-color="#E5722C" offset=".515"/><stop stop-color="#E06620" offset=".649"/><stop stop-color="#DF621C" offset=".78"/><stop stop-color="#D64701" offset="1"/></linearGradient><path data-cppathid="10011" fill="url(#l)" d="M22 18c-.6 0-1-.4-1-1V2c0-.6.4-1 1-1s1 .4 1 1v15c0 .6-.4 1-1 1z"/></svg>