<?xml version="1.0" encoding="UTF-8"?>
<svg xmlns="http://www.w3.org/2000/svg" onmouseup="{ if(window.parent.document.onmouseup) window.parent.document.onmouseup(arguments[0]);}" overflow="visible" preserveAspectRatio="xMinYMid meet" viewBox="0 0 24 24" height="24" width="24"><linearGradient y2="24" x2="11.957" x1="11.957" gradientUnits="userSpaceOnUse" id="a"><stop stop-color="#95BFF8" offset="0"/><stop stop-color="#84ADEF" offset=".557"/><stop stop-color="#7CA4EB" offset="1"/></linearGradient><path data-cppathid="10000" d="M14.4 0H2v24h20V7.9" fill="url(#a)"/><linearGradient y2="23" x2="11.957" y1="1" x1="11.957" gradientUnits="userSpaceOnUse" id="b"><stop stop-color="#E7F4FC" offset="0"/><stop stop-color="#DEEFFC" offset="1"/></linearGradient><path data-cppathid="10001" d="M14 1H3v22h18V8.3" fill="url(#b)"/><linearGradient y2="22" x2="11.957" y1="2" x1="11.957" gradientUnits="userSpaceOnUse" id="c"><stop stop-color="#CEE9F9" offset="0"/><stop stop-color="#BBDFF8" offset="1"/></linearGradient><path data-cppathid="10002" d="M13.6 2H4v20h16V8.7" fill="url(#c)"/><linearGradient y2="9.359" x2="17.202" x1="17.202" gradientUnits="userSpaceOnUse" id="d"><stop stop-color="#95BFF8" offset="0"/><stop stop-color="#84ADEF" offset=".557"/><stop stop-color="#7CA4EB" offset="1"/></linearGradient><path data-cppathid="10003" fill="url(#d)" d="M13 9s5.2-1.5 9 .4V7.9L14.4 0h-2c2.7 3.7.6 9 .6 9z"/><linearGradient y2="4.417" x2="17.407" y1="7.545" x1="14.279" gradientUnits="userSpaceOnUse" id="e"><stop stop-color="#E7F4FC" offset="0"/><stop stop-color="#E5F3FC" offset=".518"/><stop stop-color="#DEF0FB" offset=".705"/><stop stop-color="#D3EBFA" offset=".837"/><stop stop-color="#CEE9F9" offset=".872"/><stop stop-color="#BDD8F0" offset="1"/></linearGradient><path data-cppathid="10004" fill="url(#e)" d="M20.4 7.8c-.9-.2-2-.3-3.1-.3s-2.1.1-3 .3c.4-1.6.7-4.1-.2-6.4l6.3 6.4z"/><linearGradient y2="23.949" x2="11.857" y1="1.852" x1="11.857" gradientUnits="userSpaceOnUse" id="f"><stop stop-color="#DB6D17" offset="0"/><stop stop-color="#BF3B08" offset="1"/></linearGradient><path data-cppathid="10005" d="M8 16.9l-4.8-5L0 15.1l8.8 8.8 14.9-22" fill="url(#f)"/><linearGradient y2="22.383" x2="9.552" y1="9.008" x1="9.552" gradientUnits="userSpaceOnUse" id="g"><stop stop-color="#F6A55E" offset="0"/><stop stop-color="#EA5B03" offset="1"/></linearGradient><path data-cppathid="10006" d="M1.4 15.1l1.8-1.7 4.7 5L17.7 9l-9 13.4" fill="url(#g)"/><g><linearGradient y2="20.817" x2="7.248" y1="14.8" x1="7.248" gradientUnits="userSpaceOnUse" id="h"><stop stop-color="#F17219" offset="0"/><stop stop-color="#EA5B03" offset="1"/></linearGradient><path data-cppathid="10007" d="M2.8 15.1l.3-.3 4.8 5 3.8-3.6-3.2 4.6" fill="url(#h)"/></g></svg>