<?xml version="1.0" encoding="UTF-8"?>
<svg xmlns="http://www.w3.org/2000/svg" onmouseup="{ if(window.parent.document.onmouseup) window.parent.document.onmouseup(arguments[0]);}" overflow="visible" preserveAspectRatio="xMinYMid meet" viewBox="0 0 24 24" height="24" width="24"><linearGradient y2="14.001" x2="5.5" y1="10" x1="5.5" gradientUnits="userSpaceOnUse" id="a"><stop stop-color="#95BFF8" offset="0"/><stop stop-color="#84ADEF" offset=".557"/><stop stop-color="#7CA4EB" offset="1"/></linearGradient><path data-cppathid="10000" d="M5 10h1v4H5z" fill="url(#a)"/><linearGradient y2="9" x2="15" y1="5" x1="15" gradientUnits="userSpaceOnUse" id="b"><stop stop-color="#95BFF8" offset="0"/><stop stop-color="#84ADEF" offset=".557"/><stop stop-color="#7CA4EB" offset="1"/></linearGradient><path data-cppathid="10001" d="M18 5h-7v1h7v3h1V5" fill="url(#b)"/><linearGradient y2="24" x2="5.5" y1="14" x1="5.5" gradientUnits="userSpaceOnUse" id="c"><stop stop-color="#76A1F0" offset="0"/><stop stop-color="#6B90D5" offset="1"/></linearGradient><path data-cppathid="10002" fill="url(#c)" d="M10 14H1c-.6 0-1 .4-1 1v9h11v-9c0-.6-.4-1-1-1z"/><linearGradient y2="23" x2="5.5" y1="17" x1="5.5" gradientUnits="userSpaceOnUse" id="d"><stop stop-color="#E7F4FC" offset="0"/><stop stop-color="#DEEFFC" offset="1"/></linearGradient><path data-cppathid="10003" d="M1 17h9v6H1z" fill="url(#d)"/><linearGradient y2="22" x2="5.5" y1="18" x1="5.5" gradientUnits="userSpaceOnUse" id="e"><stop stop-color="#CEE9F9" offset="0"/><stop stop-color="#BBDFF8" offset="1"/></linearGradient><path data-cppathid="10004" d="M2 18h7v4H2z" fill="url(#e)"/><linearGradient y2="16" x2="5.5" y1="15" x1="5.5" gradientUnits="userSpaceOnUse" id="f"><stop stop-color="#BBE0F7" offset="0"/><stop stop-color="#82B4FB" offset="1"/></linearGradient><path data-cppathid="10005" d="M1 15h9v1H1z" fill="url(#f)"/><linearGradient y2="19" x2="18.5" y1="9" x1="18.5" gradientUnits="userSpaceOnUse" id="g"><stop stop-color="#76A1F0" offset="0"/><stop stop-color="#6B90D5" offset="1"/></linearGradient><path data-cppathid="10006" fill="url(#g)" d="M23 9h-9c-.6 0-1 .4-1 1v9h11v-9c0-.6-.4-1-1-1z"/><linearGradient y2="18" x2="18.5" y1="12" x1="18.5" gradientUnits="userSpaceOnUse" id="h"><stop stop-color="#E7F4FC" offset="0"/><stop stop-color="#DEEFFC" offset="1"/></linearGradient><path data-cppathid="10007" d="M14 12h9v6h-9z" fill="url(#h)"/><linearGradient y2="17" x2="18.5" y1="13" x1="18.5" gradientUnits="userSpaceOnUse" id="i"><stop stop-color="#CEE9F9" offset="0"/><stop stop-color="#BBDFF8" offset="1"/></linearGradient><path data-cppathid="10008" d="M15 13h7v4h-7z" fill="url(#i)"/><linearGradient y2="11" x2="18.5" y1="10" x1="18.5" gradientUnits="userSpaceOnUse" id="j"><stop stop-color="#BBE0F7" offset="0"/><stop stop-color="#82B4FB" offset="1"/></linearGradient><path data-cppathid="10009" d="M14 10h9v1h-9z" fill="url(#j)"/><linearGradient y2="10" x2="5.5" x1="5.5" gradientUnits="userSpaceOnUse" id="k"><stop stop-color="#76A1F0" offset="0"/><stop stop-color="#6B90D5" offset="1"/></linearGradient><path data-cppathid="10010" fill="url(#k)" d="M10 0H1C.4 0 0 .4 0 1v9h11V1c0-.6-.4-1-1-1z"/><linearGradient y2="9" x2="5.5" y1="3" x1="5.5" gradientUnits="userSpaceOnUse" id="l"><stop stop-color="#E7F4FC" offset="0"/><stop stop-color="#DEEFFC" offset="1"/></linearGradient><path data-cppathid="10011" d="M1 3h9v6H1z" fill="url(#l)"/><linearGradient y2="8" x2="5.5" y1="4" x1="5.5" gradientUnits="userSpaceOnUse" id="m"><stop stop-color="#CEE9F9" offset="0"/><stop stop-color="#BBDFF8" offset="1"/></linearGradient><path data-cppathid="10012" d="M2 4h7v4H2z" fill="url(#m)"/><linearGradient y2="2" x2="5.5" y1="1" x1="5.5" gradientUnits="userSpaceOnUse" id="n"><stop stop-color="#BBE0F7" offset="0"/><stop stop-color="#82B4FB" offset="1"/></linearGradient><path data-cppathid="10013" d="M1 1h9v1H1z" fill="url(#n)"/></svg>